<?xml version="1.0" encoding="UTF-8" standalone="no"?>
<!-- Created with Inkscape (http://www.inkscape.org/) -->

<svg
   width="94.737976mm"
   height="94.737976mm"
   viewBox="0 0 94.737976 94.737976"
   version="1.1"
   id="svg366791"
   inkscape:version="1.4.2 (1:1.4.2+202505120738+ebf0e940d0)"
   sodipodi:docname="pillars.svg"
   xml:space="preserve"
   inkscape:export-filename="pillars.png"
   inkscape:export-xdpi="300"
   inkscape:export-ydpi="300"
   xmlns:inkscape="http://www.inkscape.org/namespaces/inkscape"
   xmlns:sodipodi="http://sodipodi.sourceforge.net/DTD/sodipodi-0.dtd"
   xmlns="http://www.w3.org/2000/svg"
   xmlns:svg="http://www.w3.org/2000/svg"><sodipodi:namedview
     id="namedview366793"
     pagecolor="#505050"
     bordercolor="#eeeeee"
     borderopacity="1"
     inkscape:pageshadow="0"
     inkscape:pageopacity="0"
     inkscape:pagecheckerboard="false"
     inkscape:document-units="mm"
     showgrid="false"
     fit-margin-top="0"
     fit-margin-left="0"
     fit-margin-right="0"
     fit-margin-bottom="0"
     inkscape:zoom="1.3791126"
     inkscape:cx="203.39166"
     inkscape:cy="103.32731"
     inkscape:window-width="1920"
     inkscape:window-height="1136"
     inkscape:window-x="0"
     inkscape:window-y="0"
     inkscape:window-maximized="1"
     inkscape:current-layer="g2"
     inkscape:showpageshadow="0"
     inkscape:deskcolor="#d1d1d1"
     showborder="false"
     borderlayer="false" /><defs
     id="defs366788" /><g
     inkscape:label="Layer 1"
     inkscape:groupmode="layer"
     id="layer1"
     transform="translate(56.769628,-36.050811)"><g
       id="g2"
       transform="matrix(0.82685019,0,0,0.82685019,11.778834,31.668337)"><rect
         style="fill:#f6d3b7;fill-opacity:0;stroke-width:11.4577;stroke-linecap:round;stroke-linejoin:round;paint-order:stroke markers fill"
         id="rect1"
         width="114.57695"
         height="114.57695"
         x="-82.903122"
         y="5.3002028" /><path
         style="fill:#d8e1f2"
         d="m -80.118814,112.67478 v -1.71979 h 1.984375 1.984375 v -1.5875 -1.5875 h 50.535417 50.535417 v 1.5875 1.5875 h 1.984375 1.984375 v 1.71979 1.7198 h -54.504167 -54.504167 z m 8.466667,-69.982288 v -1.5875 h -2.248958 -2.248959 v -1.719791 -1.719792 h 50.535417 50.535417 v 1.719792 1.719791 h -2.248959 -2.248958 v 1.5875 1.5875 h -46.0375 -46.0375 z m 46.038718,-31.909716 50.137324,24.365225 c 0.138962,0.06753 -22.3572919,0.09286 -50.00625,0.09101 l -50.270834,-0.0034 z"
         id="path8"
         sodipodi:nodetypes="cccccccccccccccccccccccccccccccccccsccc" /><path
         style="fill:#f6d3b7;fill-opacity:1"
         d="m -32.427668,100.18892 c 0.436687,-0.11411 0.463021,-1.488033 0.463021,-24.156629 0,-18.980945 -0.06955,-24.0637 -0.330729,-24.169087 -0.181901,-0.0734 2.883958,-0.12904 6.813021,-0.123648 3.929062,0.0054 6.93539,0.06425 6.680729,0.130804 -0.436686,0.114118 -0.463021,1.488038 -0.463021,24.156634 0,18.980944 0.06955,24.063696 0.330729,24.169086 0.181901,0.0734 -2.883958,0.12904 -6.813021,0.12365 -3.929062,-0.005 -6.93539,-0.0643 -6.680729,-0.13081 z"
         id="path7"
         sodipodi:nodetypes="csssssscc" /><path
         style="fill:#d8e1f2;fill-opacity:1"
         d="M -63.450064,76.029992 V 51.688326 h 6.482292 6.482292 v 24.341666 24.341668 h -6.482292 -6.482292 z"
         id="path6"
         sodipodi:nodetypes="ccccccccc" /><path
         style="fill:#d8e1f2;fill-opacity:1"
         d="M -0.87610524,76.029992 V 51.688326 H 5.6723323 12.22077 V 76.029992 100.37166 H 5.6723323 -0.87610524 Z"
         id="path5"
         sodipodi:nodetypes="ccccccccc" /><path
         style="fill:#dc5016;fill-opacity:1"
         d="m -34.695257,104.16744 c -0.09889,-0.0989 -0.179807,-0.9934 -0.179807,-1.98779 v -1.80799 h 9.272008 9.272008 l -0.07774,1.91823 -0.07774,1.91823 -9.014464,0.0696 c -4.957956,0.0383 -9.095378,-0.0114 -9.194271,-0.11024 z m -0.125252,-54.397344 0.07774,-1.918229 h 9.128125 9.128125 l 0.07774,1.918229 0.07774,1.91823 h -9.283599 -9.283599 z"
         id="path4" /><path
         style="fill:#7f7f7f;fill-opacity:1"
         d="m -66.36048,102.35942 v -1.98776 h 9.404299 9.4043 l -0.07774,1.91823 -0.07774,1.91823 -9.326563,0.0695 -9.326562,0.0695 z m 0,-52.658854 v -1.98776 l 9.326562,0.06953 9.326563,0.06953 0.07774,1.918229 0.07774,1.91823 h -9.4043 -9.404299 z"
         id="path3" /><path
         style="fill:#7f7f7f;fill-opacity:1"
         d="m -3.6542302,102.35603 v -1.98437 h 9.3927083 9.3927079 v 1.98437 1.98438 H 5.7384781 -3.6542302 Z m 0,-52.652079 v -1.984375 h 9.3927083 9.3927079 v 1.984375 1.984375 H 5.7384781 -3.6542302 Z"
         id="path2"
         sodipodi:nodetypes="cccccccccccccccccc" /></g><text
       xml:space="preserve"
       style="font-weight:bold;font-size:6.84813px;line-height:1;font-family:Quicksand;-inkscape-font-specification:'Quicksand Bold';text-align:start;text-decoration-color:#000000;letter-spacing:0px;writing-mode:lr-tb;direction:ltr;text-anchor:start;white-space:pre;fill:#1c2c3f;stroke-width:5.39222;stroke-linecap:round;stroke-linejoin:round;paint-order:stroke markers fill"
       x="16.653896"
       y="79.670151"
       id="text8-5-6"><tspan
         x="16.653896"
         y="79.670151"
         style="text-align:center;text-anchor:middle;stroke-width:5.39222"
         sodipodi:role="line"
         id="tspan13-6">P</tspan><tspan
         x="16.653896"
         y="86.51828"
         style="text-align:center;text-anchor:middle;stroke-width:5.39222"
         sodipodi:role="line"
         id="tspan24">A</tspan><tspan
         x="16.653896"
         y="93.366409"
         style="text-align:center;text-anchor:middle;stroke-width:5.39222"
         sodipodi:role="line"
         id="tspan25">P</tspan><tspan
         x="16.653896"
         y="100.21454"
         style="text-align:center;text-anchor:middle;stroke-width:5.39222"
         sodipodi:role="line"
         id="tspan26">E</tspan><tspan
         x="16.653896"
         y="107.06267"
         style="text-align:center;text-anchor:middle;stroke-width:5.39222"
         sodipodi:role="line"
         id="tspan27">R</tspan><tspan
         x="16.653896"
         y="113.9108"
         style="text-align:center;text-anchor:middle;stroke-width:5.39222"
         sodipodi:role="line"
         id="tspan28">S</tspan></text><text
       xml:space="preserve"
       style="font-weight:bold;font-size:8.25471px;line-height:1;font-family:Quicksand;-inkscape-font-specification:'Quicksand Bold';text-align:start;text-decoration-color:#000000;letter-spacing:0px;writing-mode:lr-tb;direction:ltr;text-anchor:start;white-space:pre;fill:#1c2c3f;stroke-width:6.49977;stroke-linecap:round;stroke-linejoin:round;paint-order:stroke markers fill"
       x="-9.4006338"
       y="51.698544"
       id="text8"><tspan
         sodipodi:role="line"
         x="-9.4006348"
         y="51.698544"
         style="text-align:center;text-anchor:middle;stroke-width:6.49977"
         id="tspan9">OPEN</tspan><tspan
         sodipodi:role="line"
         x="-9.4006348"
         y="59.953255"
         style="text-align:center;text-anchor:middle;stroke-width:6.49977"
         id="tspan10">SCIENCE</tspan></text><text
       xml:space="preserve"
       style="font-weight:bold;font-size:8.25471px;line-height:1;font-family:Quicksand;-inkscape-font-specification:'Quicksand Bold';text-align:start;text-decoration-color:#000000;letter-spacing:0px;writing-mode:lr-tb;direction:ltr;text-anchor:start;white-space:pre;fill:#1c2c3f;stroke-width:6.49977;stroke-linecap:round;stroke-linejoin:round;paint-order:stroke markers fill"
       x="-35.329987"
       y="84.914322"
       id="text8-5"><tspan
         x="-35.329987"
         y="84.914322"
         style="text-align:center;text-anchor:middle;stroke-width:6.49977"
         id="tspan10-2"
         sodipodi:role="line">D</tspan><tspan
         x="-35.329987"
         y="93.169029"
         style="text-align:center;text-anchor:middle;stroke-width:6.49977"
         sodipodi:role="line"
         id="tspan11">A</tspan><tspan
         x="-35.329987"
         y="101.42374"
         style="text-align:center;text-anchor:middle;stroke-width:6.49977"
         sodipodi:role="line"
         id="tspan12">T</tspan><tspan
         x="-35.329987"
         y="109.67845"
         style="text-align:center;text-anchor:middle;stroke-width:6.49977"
         sodipodi:role="line"
         id="tspan13">A</tspan></text><text
       xml:space="preserve"
       style="font-weight:bold;font-size:8.25471px;line-height:1;font-family:Quicksand;-inkscape-font-specification:'Quicksand Bold';text-align:start;text-decoration-color:#000000;letter-spacing:0px;writing-mode:lr-tb;direction:ltr;text-anchor:start;white-space:pre;fill:#1c2c3f;stroke-width:6.49977;stroke-linecap:round;stroke-linejoin:round;paint-order:stroke markers fill"
       x="-9.3155413"
       y="84.955597"
       id="text8-5-1"><tspan
         x="-9.3155413"
         y="84.955597"
         style="text-align:center;text-anchor:middle;stroke-width:6.49977"
         sodipodi:role="line"
         id="tspan18">C</tspan><tspan
         x="-9.3155413"
         y="93.210304"
         style="text-align:center;text-anchor:middle;stroke-width:6.49977"
         sodipodi:role="line"
         id="tspan19">O</tspan><tspan
         x="-9.3155413"
         y="101.46502"
         style="text-align:center;text-anchor:middle;stroke-width:6.49977"
         sodipodi:role="line"
         id="tspan20">D</tspan><tspan
         x="-9.3155413"
         y="109.71973"
         style="text-align:center;text-anchor:middle;stroke-width:6.49977"
         sodipodi:role="line"
         id="tspan21">E</tspan></text></g></svg>
